<svg width="20" height="20" viewBox="0 0 20 20" fill="none" xmlns="http://www.w3.org/2000/svg">
<path d="M20 0H0V20H20V0Z" fill="#0084B1"/>
<path d="M4.70695 3.03754C5.62297 3.03828 6.37846 3.79487 6.37649 4.71545C6.37429 5.6794 5.57435 6.40592 4.69567 6.38499C3.80444 6.40302 3.02122 5.65864 3.02139 4.70909C3.02139 3.78815 3.77982 3.03683 4.70695 3.03754Z" fill="white"/>
<path d="M5.68016 16.9605H3.71756C3.46284 16.9605 3.25636 16.754 3.25636 16.4993V8.12672C3.25636 7.87201 3.46284 7.66553 3.71756 7.66553H5.68016C5.93487 7.66553 6.14135 7.87201 6.14135 8.12672V16.4994C6.14131 16.754 5.93487 16.9605 5.68016 16.9605Z" fill="white"/>
<path d="M16.9786 10.6064C16.9786 8.85111 15.5557 7.42816 13.8004 7.42816H13.2971C12.3368 7.42816 11.4884 7.9073 10.9781 8.63967C10.9224 8.71949 10.8709 8.80239 10.8236 8.88797C10.8072 8.88551 10.7975 8.88424 10.7973 8.88468V7.85697C10.7973 7.75125 10.7116 7.66549 10.6058 7.66549H8.15723C8.05151 7.66549 7.96576 7.7512 7.96576 7.85697V16.7691C7.96576 16.8748 8.05142 16.9605 8.15714 16.9606L10.6591 16.9612C10.7649 16.9612 10.8506 16.8755 10.8506 16.7697V11.6209C10.8506 10.7309 11.5605 9.99196 12.4504 9.98191C12.9047 9.97677 13.3166 10.1588 13.6134 10.4558C13.9064 10.7486 14.0875 11.1534 14.0875 11.6003V16.7704C14.0875 16.8761 14.1732 16.9618 14.2789 16.9619L16.787 16.9625C16.8928 16.9625 16.9785 16.8768 16.9785 16.771V10.6064H16.9786Z" fill="white"/>
</svg>
